<?xml version="1.0" encoding="UTF-8"?> <svg xmlns="http://www.w3.org/2000/svg" width="260" height="260" viewBox="0 0 260 260" fill="none"> <path d="M58 133.501C58.0941 156.858 77.1232 176 100.5 176C123.934 176 142.998 156.935 142.998 133.501V127.501C142.998 117.851 150.849 110 160.499 110C170.15 110 177.999 117.851 177.999 127.501C177.999 130.262 180.238 132.501 182.999 132.501H198C200.762 132.501 203 130.262 203 127.501C203 104.066 183.936 85 160.5 85C137.066 85 118 104.066 118 127.501V133.501C118 143.152 110.149 151 100.501 151C90.8519 151 83.0007 143.152 83.0007 133.501C83.0007 130.739 80.7617 128.5 78.0006 128.5H63.0001C60.239 128.502 58 130.739 58 133.501Z" fill="white" fill-opacity="0.7"></path> </svg> 