<?xml version="1.0" encoding="UTF-8"?> <svg xmlns="http://www.w3.org/2000/svg" width="260" height="260" viewBox="0 0 260 260" fill="none"> <path d="M100.222 82.8333V154.333M100.222 82.8333H136.556C142.98 82.8333 149.141 85.3443 153.683 89.8139C158.226 94.2836 160.778 100.346 160.778 106.667C160.778 112.988 158.226 119.05 153.683 123.519C149.141 127.989 142.98 130.5 136.556 130.5H100.222V82.8333ZM100.222 154.333C93.7981 154.333 87.6371 156.844 83.0945 161.314C78.552 165.784 76 171.846 76 178.167M100.222 154.333H148.667C158.303 154.333 167.544 149.311 174.358 140.372C181.172 131.433 185 119.309 185 106.667C185 94.0247 181.172 81.9005 174.358 72.9612C167.544 64.022 158.303 59 148.667 59H76V178.167M76 178.167C76 184.488 78.552 190.55 83.0945 195.019C87.6371 199.489 93.7981 202 100.222 202V166.25" stroke="white" stroke-opacity="0.7" stroke-width="10" stroke-linecap="square" stroke-linejoin="round"></path> </svg> 