<?xml version="1.0" encoding="UTF-8"?> <svg xmlns="http://www.w3.org/2000/svg" width="260" height="260" viewBox="0 0 260 260" fill="none"> <path fill-rule="evenodd" clip-rule="evenodd" d="M58 75L147.143 185C177.44 185 202 160.376 202 130C202 99.6243 177.44 75 147.143 75H58ZM153.299 170.791C173.101 167.813 188.286 150.684 188.286 130C188.286 107.218 169.865 88.75 147.143 88.75H124.571C134.344 99.6969 140.286 114.153 140.286 130C140.286 137.167 139.068 144.056 136.828 150.466L153.299 170.791ZM126.045 137.16C126.392 134.825 126.571 132.434 126.571 130C126.571 112.494 117.249 97.1712 103.309 88.75H86.8133L126.045 137.16Z" fill="white" fill-opacity="0.7"></path> </svg> 