<?xml version="1.0" encoding="UTF-8"?> <svg xmlns="http://www.w3.org/2000/svg" width="260" height="260" viewBox="0 0 260 260" fill="none"> <path d="M166.667 59H93.3333L86 73.3M166.667 59L174 73.3L144.667 130.5M166.667 59L137.333 116.2M86 73.3H144.667L130 101.9L122.667 87.6M86 73.3L122.667 144.8L93.3333 202M86 73.3L137.333 173.4H122.667H152L108 87.6M122.667 87.6L152 144.8M122.667 87.6L174 187.7M137.333 87.6H108M108 87.6L137.333 144.8M174 187.7L166.667 202H93.3333M174 187.7H115.333L130 159.1M93.3333 202L86 187.7L115.333 130.5" stroke="white" stroke-opacity="0.7" stroke-width="5" stroke-linecap="round" stroke-linejoin="round"></path> </svg> 