<?xml version="1.0" encoding="UTF-8"?> <svg xmlns="http://www.w3.org/2000/svg" width="260" height="260" viewBox="0 0 260 260" fill="none"> <path d="M79.3077 130C112.769 86 146.231 86 179.692 130M79.3077 130C112.769 174 146.231 174 179.692 130M79.3077 130L68.1538 119C109.051 75 148.09 75 185.269 119L202 141M179.692 130L190.846 141C149.949 185 110.91 185 73.7308 141L57 119M57 119V141C105.333 199.667 153.667 199.667 202 141M57 119C105.333 60.3333 153.667 60.3333 202 119V141" stroke="white" stroke-opacity="0.7" stroke-width="5" stroke-linecap="round" stroke-linejoin="round"></path> </svg> 