<?xml version="1.0" encoding="UTF-8"?> <svg xmlns="http://www.w3.org/2000/svg" width="260" height="260" viewBox="0 0 260 260" fill="none"> <path d="M58 130.5H53H58ZM85 130.5H80H85ZM130 175.187V180.187V175.187ZM175 130.5H180H175ZM130 54C109.59 54 90.0081 62.0514 75.5651 76.394L82.6115 83.4897C95.1738 71.0146 112.219 64 130 64V54ZM75.5651 76.394C61.121 90.7378 53 110.2 53 130.5H63C63 112.874 70.0504 95.9636 82.6115 83.4897L75.5651 76.394ZM53 130.5C53 150.8 61.121 170.262 75.5651 184.606L82.6115 177.51C70.0504 165.036 63 148.126 63 130.5H53ZM75.5651 184.606C90.0081 198.949 109.59 207 130 207V197C112.219 197 95.1738 189.985 82.6115 177.51L75.5651 184.606ZM130 207C150.41 207 169.992 198.949 184.435 184.606L177.388 177.51C164.826 189.985 147.781 197 130 197V207ZM184.435 184.606C198.879 170.262 207 150.8 207 130.5H197C197 148.126 189.95 165.036 177.388 177.51L184.435 184.606ZM207 130.5C207 110.2 198.879 90.7378 184.435 76.394L177.388 83.4897C189.95 95.9636 197 112.874 197 130.5H207ZM184.435 76.394C169.992 62.0514 150.41 54 130 54V64C147.781 64 164.826 71.0146 177.388 83.4897L184.435 76.394ZM130 80.8125C116.75 80.8125 104.036 86.039 94.657 95.3533L101.703 102.449C109.202 95.0023 119.38 90.8125 130 90.8125V80.8125ZM94.657 95.3533C85.2764 104.669 80 117.311 80 130.5H90C90 119.986 94.2057 109.895 101.703 102.449L94.657 95.3533ZM80 130.5C80 143.689 85.2764 156.331 94.657 165.647L101.703 158.551C94.2057 151.105 90 141.014 90 130.5H80ZM94.657 165.647C104.036 174.961 116.75 180.187 130 180.187V170.187C119.38 170.187 109.202 165.998 101.703 158.551L94.657 165.647ZM130 180.187C143.25 180.187 155.964 174.961 165.343 165.647L158.297 158.551C150.798 165.998 140.62 170.187 130 170.187V180.187ZM165.343 165.647C174.724 156.331 180 143.689 180 130.5H170C170 141.014 165.794 151.105 158.297 158.551L165.343 165.647ZM180 130.5C180 117.311 174.724 104.669 165.343 95.3533L158.297 102.449C165.794 109.895 170 119.986 170 130.5H180ZM165.343 95.3533C155.964 86.039 143.25 80.8125 130 80.8125V90.8125C140.62 90.8125 150.798 95.0023 158.297 102.449L165.343 95.3533ZM99.8898 90.8351C84.0118 103.449 74.9159 118.777 73.2708 136.747C71.6426 154.534 77.3787 174.202 89.6663 195.556L98.3337 190.569C86.6213 170.214 81.8574 152.644 83.2292 137.659C84.5841 122.859 91.9882 109.884 106.11 98.6649L99.8898 90.8351ZM160.11 170.165C175.967 157.568 185.08 142.408 186.729 124.578C188.36 106.938 182.613 87.4249 170.334 66.0852L161.666 71.0727C173.387 91.4414 178.14 108.847 176.771 123.657C175.42 138.277 168.033 151.099 153.89 162.335L160.11 170.165Z" fill="white" fill-opacity="0.7"></path> </svg> 